<svg width="134" height="48" viewBox="0 0 134 48" fill="none" xmlns="http://www.w3.org/2000/svg">
  <path d="M20.3981 21.266H13.3921V34.162C13.3921 35.2367 13.6607 36.022 14.1981 36.518C14.7354 37.014 15.5207 37.3033 16.5541 37.386C17.5874 37.4273 18.8687 37.4067 20.3981 37.324V44.578C14.9007 45.198 11.0154 44.6813 8.74206 43.028C6.51006 41.3747 5.39406 38.4193 5.39406 34.162V21.266H5.66877e-05V13.578H5.39406V7.316L13.3921 4.898V13.578H20.3981V21.266ZM61.4275 13.578H69.9215L60.0635 44.578H52.4375L46.7335 25.792L41.0295 44.578H33.4035L23.5455 13.578H32.0395L37.3095 32.612L42.9515 13.578H50.5155L56.1575 32.674L61.4275 13.578ZM78.2005 9.858C76.8778 9.858 75.7205 9.38267 74.7285 8.432C73.7778 7.44 73.3025 6.28267 73.3025 4.96C73.3025 3.63733 73.7778 2.48 74.7285 1.488C75.7205 0.496 76.8778 0 78.2005 0C79.5645 0 80.7218 0.496 81.6725 1.488C82.6645 2.48 83.1605 3.63733 83.1605 4.96C83.1605 6.28267 82.6645 7.44 81.6725 8.432C80.7218 9.38267 79.5645 9.858 78.2005 9.858ZM74.2325 44.578V13.578H82.2305V44.578H74.2325ZM133.013 22.878C133.013 28.4993 131.235 33.3767 127.681 37.51L132.145 42.16L126.069 47.554L121.357 42.656C118.009 44.516 114.371 45.446 110.445 45.446C104.203 45.446 98.8922 43.276 94.5108 38.936C90.1295 34.5547 87.9388 29.202 87.9388 22.878C87.9388 16.554 90.1295 11.222 94.5108 6.882C98.8922 2.50067 104.203 0.31 110.445 0.31C116.686 0.31 121.997 2.50067 126.379 6.882C130.801 11.222 133.013 16.554 133.013 22.878ZM110.445 37.076C112.057 37.076 113.669 36.8073 115.281 36.27L108.151 28.83L114.227 23.436L121.853 31.372C123.589 28.892 124.457 26.0607 124.457 22.878C124.457 18.7447 123.113 15.3347 120.427 12.648C117.74 9.96133 114.413 8.618 110.445 8.618C106.477 8.618 103.149 9.96133 100.463 12.648C97.7762 15.3347 96.4328 18.7447 96.4328 22.878C96.4328 26.97 97.7762 30.3593 100.463 33.046C103.149 35.7327 106.477 37.076 110.445 37.076Z" fill="#EB2F96"/>
</svg>
